<?xml version="1.0" encoding="UTF-8" standalone="no"?>
<svg width="128px" height="128px" viewBox="0 0 128 128" version="1.1" xmlns="http://www.w3.org/2000/svg" xmlns:xlink="http://www.w3.org/1999/xlink" xmlns:sketch="http://www.bohemiancoding.com/sketch/ns">
    <!-- Generator: Sketch 3.4.2 (15855) - http://www.bohemiancoding.com/sketch -->
    <title>icon-mask</title>
    <desc>Created with Sketch.</desc>
    <defs></defs>
    <g id="Icons" stroke="none" stroke-width="1" fill="none" fill-rule="evenodd" sketch:type="MSPage">
        <g id="dukt-plugin-icons" sketch:type="MSArtboardGroup" transform="translate(-2624.000000, -64.000000)" fill="#FFFFFF">
            <g id="Rectangle-47-+-Rectangle-47" sketch:type="MSLayerGroup" transform="translate(2560.000000, 0.000000)">
                <path d="M64,73.9906302 C64,68.4729575 68.4805348,64 73.9906302,64 L182.00937,64 C187.527043,64 192,68.4805348 192,73.9906302 L192,182.00937 C192,187.527043 187.519465,192 182.00937,192 L73.9906302,192 C68.4729575,192 64,187.519465 64,182.00937 L64,73.9906302 Z M150.488471,81.3751919 L138.484868,81.3559322 C124.999231,81.3559322 116.28422,90.2972445 116.28422,104.136297 L116.28422,114.63957 L104.215133,114.63957 C103.172221,114.63957 102.327684,115.485071 102.327684,116.527983 L102.327684,131.746029 C102.327684,132.788941 103.173184,133.633479 104.215133,133.633479 L116.28422,133.633479 L116.28422,172.033454 C116.28422,173.076366 117.128757,173.920904 118.17167,173.920904 L133.918394,173.920904 C134.961307,173.920904 135.805844,173.075403 135.805844,172.033454 L135.805844,133.633479 L149.917421,133.633479 C150.960333,133.633479 151.804871,132.788941 151.804871,131.746029 L151.810649,116.527983 C151.810649,116.027231 151.611311,115.547665 151.257896,115.193286 C150.90448,114.838908 150.422988,114.63957 149.922236,114.63957 L135.805844,114.63957 L135.805844,105.735814 C135.805844,101.45631 136.825645,99.2838171 142.400363,99.2838171 L150.486545,99.2809281 C151.528494,99.2809281 152.373032,98.4354276 152.373032,97.3934783 L152.373032,83.2626418 C152.373032,82.2216554 151.529457,81.3771179 150.488471,81.3751919 Z" id="icon-mask" sketch:type="MSShapeGroup"></path>
            </g>
        </g>
    </g>
</svg>