<?xml version="1.0" encoding="UTF-8" standalone="no"?>
<svg width="128px" height="128px" viewBox="0 0 128 128" version="1.1" xmlns="http://www.w3.org/2000/svg" xmlns:xlink="http://www.w3.org/1999/xlink" xmlns:sketch="http://www.bohemiancoding.com/sketch/ns">
    <!-- Generator: Sketch 3.4.2 (15855) - http://www.bohemiancoding.com/sketch -->
    <title>icon</title>
    <desc>Created with Sketch.</desc>
    <defs></defs>
    <g id="Icons" stroke="none" stroke-width="1" fill="none" fill-rule="evenodd" sketch:type="MSPage">
        <g id="dukt-plugin-icons" sketch:type="MSArtboardGroup" transform="translate(-2624.000000, -320.000000)" fill="#3B5998">
            <g id="Rectangle-47-+-Rectangle-47" sketch:type="MSLayerGroup" transform="translate(2560.000000, 0.000000)">
                <path d="M64,329.99063 C64,324.472957 68.4805348,320 73.9906302,320 L182.00937,320 C187.527043,320 192,324.480535 192,329.99063 L192,438.00937 C192,443.527043 187.519465,448 182.00937,448 L73.9906302,448 C68.4729575,448 64,443.519465 64,438.00937 L64,329.99063 Z M150.488471,337.375192 L138.484868,337.355932 C124.999231,337.355932 116.28422,346.297245 116.28422,360.136297 L116.28422,370.63957 L104.215133,370.63957 C103.172221,370.63957 102.327684,371.485071 102.327684,372.527983 L102.327684,387.746029 C102.327684,388.788941 103.173184,389.633479 104.215133,389.633479 L116.28422,389.633479 L116.28422,428.033454 C116.28422,429.076366 117.128757,429.920904 118.17167,429.920904 L133.918394,429.920904 C134.961307,429.920904 135.805844,429.075403 135.805844,428.033454 L135.805844,389.633479 L149.917421,389.633479 C150.960333,389.633479 151.804871,388.788941 151.804871,387.746029 L151.810649,372.527983 C151.810649,372.027231 151.611311,371.547665 151.257896,371.193286 C150.90448,370.838908 150.422988,370.63957 149.922236,370.63957 L135.805844,370.63957 L135.805844,361.735814 C135.805844,357.45631 136.825645,355.283817 142.400363,355.283817 L150.486545,355.280928 C151.528494,355.280928 152.373032,354.435428 152.373032,353.393478 L152.373032,339.262642 C152.373032,338.221655 151.529457,337.377118 150.488471,337.375192 Z" id="icon" sketch:type="MSShapeGroup"></path>
            </g>
        </g>
    </g>
</svg>