<?xml version="1.0" encoding="UTF-8" standalone="no"?>
<svg width="128px" height="123px" viewBox="0 0 128 123" version="1.1" xmlns="http://www.w3.org/2000/svg" xmlns:xlink="http://www.w3.org/1999/xlink" xmlns:sketch="http://www.bohemiancoding.com/sketch/ns">
    <!-- Generator: Sketch 3.4.2 (15855) - http://www.bohemiancoding.com/sketch -->
    <title>Shape</title>
    <desc>Created with Sketch.</desc>
    <defs></defs>
    <g id="Facebook" stroke="none" stroke-width="1" fill="none" fill-rule="evenodd" sketch:type="MSPage">
        <g id="256" sketch:type="MSArtboardGroup" transform="translate(-64.000000, -67.000000)" fill="#3B5998">
            <path d="M161.302719,107.950834 L161.302719,179.614795 L192.000724,179.614795 L192.000724,107.950834 L161.302719,107.950834 L161.302719,107.950834 Z M176.651722,169.377086 C173.581921,169.377086 171.535388,167.329544 171.535388,164.258232 C171.535388,161.186919 173.581921,159.139378 176.651722,159.139378 C179.721522,159.139378 181.768056,161.186919 181.768056,164.258232 C181.768056,167.329544 179.721522,169.377086 176.651722,169.377086 L176.651722,169.377086 Z M103.488144,74.6782815 C96.8369097,85.9397609 119.34878,95.6655841 112.185912,107.438949 L77.3948401,107.438949 C70.7436057,107.438949 63.0691046,111.022147 64.0923714,117.676658 C65.6272716,125.354939 79.9530071,181.150451 80.976274,184.221764 C84.5577078,192.411931 93.7671092,189.852503 98.8834433,188.316847 C104.511411,186.269305 151.070051,174.49594 151.070051,174.49594 L151.070051,118.188543 L114.744079,67 C114.744079,67 107.581211,67.5118854 103.488144,74.6782815 L103.488144,74.6782815 Z" id="Shape" sketch:type="MSShapeGroup" transform="translate(128.000362, 128.470001) scale(-1, 1) translate(-128.000362, -128.470001) "></path>
        </g>
    </g>
</svg>