<?xml version="1.0" encoding="UTF-8" standalone="no"?>
<svg width="75px" height="69px" viewBox="0 0 75 69" version="1.1" xmlns="http://www.w3.org/2000/svg" xmlns:xlink="http://www.w3.org/1999/xlink" xmlns:sketch="http://www.bohemiancoding.com/sketch/ns">
    <!-- Generator: Sketch 3.3.3 (12072) - http://www.bohemiancoding.com/sketch -->
    <title>like</title>
    <desc>Created with Sketch.</desc>
    <defs></defs>
    <g id="Icons" stroke="none" stroke-width="1" fill="none" fill-rule="evenodd" sketch:type="MSPage">
        <g id="like" sketch:type="MSArtboardGroup" stroke-width="0.09375">
            <g sketch:type="MSLayerGroup" id="Shape">
                <path d="M47.1876321,0.332184146 C47.6421999,0.157350385 48.1317344,0.174833761 48.6037856,0.157350385 C51.3486757,0.192317137 54.0935657,0.174833761 56.8209724,0.174833761 C57.7126246,0.104900257 58.5867934,0.839202054 58.56931,1.74833761 C58.6042767,3.54912535 58.5343432,5.36739647 58.5867934,7.16818421 C58.6567269,8.33957041 58.1846757,9.4410231 57.9049417,10.5424758 C57.5902409,11.7488287 56.943356,12.8852482 56.9783228,14.1615347 C56.9958061,17.4833761 56.9783228,20.8052176 56.9783228,24.1445424 C60.7197652,24.1445424 64.4612077,24.1620258 68.2026502,24.127059 C68.6397346,24.1095757 69.0593357,24.2319593 69.4264866,24.4592432 C70.9999904,25.4907624 72.748328,26.2250642 74.3218319,27.2565834 C74.7414329,27.518834 74.8113664,28.0433353 74.8288498,28.4979031 C74.8113664,37.8165425 74.8113664,47.1526654 74.8113664,56.4713049 C74.7589163,57.9049417 74.9162667,59.3385785 74.7589163,60.754732 C74.4616989,61.3142 73.9197142,61.6813509 73.4826298,62.1184353 C71.8042257,63.5870389 70.143305,65.0731259 68.4823842,66.5592129 C67.6956323,67.2585479 66.9088804,68.2551004 65.7374942,68.1851668 L44.0581078,68.1851668 C43.1140055,68.1851668 42.0300362,68.3600006 41.2432843,67.6781489 C39.2676628,66.0871617 37.187141,64.6360415 35.2115195,63.0450543 C35.0366857,62.9051873 34.8443686,62.7653203 34.6170847,62.7828036 C33.1484811,62.6779034 31.6973609,62.800287 30.2637241,62.940154 C28.1482355,62.9576374 26.0502304,62.940154 23.9347419,62.9226706 C23.9172585,63.9192231 23.9697087,64.9157755 23.9347419,65.912328 C23.9347419,66.3668957 23.5850744,66.7165633 23.3752739,67.1011975 C22.8158058,67.1886144 22.2563378,67.310998 21.6793864,67.310998 C15.1580871,67.2935147 8.61930442,67.310998 2.09800513,67.310998 C1.46860359,67.2935147 0.734301797,67.1361643 0.419601027,66.5242461 C0.0349667522,65.6850441 0.209800513,64.7234584 0.174833761,63.8143228 L0.174833761,29.0224044 C0.192317137,28.4804197 0.244767266,27.9034683 0.489534531,27.4314171 C0.821718677,26.8719491 1.52105372,26.7845322 2.09800513,26.7495655 C8.49692079,26.7495655 14.9133198,26.7670488 21.3297189,26.7320821 C21.9766038,26.7670488 22.7283889,26.6271818 23.287857,27.0642662 C23.567591,27.3090335 23.9347419,27.5712841 23.9172585,27.9908852 C23.987192,29.1622714 23.9172585,30.3511409 23.9347419,31.5225271 C27.8859849,31.1204095 31.6274274,29.1622714 34.3198673,26.2775143 C35.1241026,25.5956626 35.4562868,24.5641434 35.8758878,23.6375245 C36.8374735,21.7318365 37.6941589,19.756215 38.6382612,17.8155603 C39.6348137,15.5776881 40.7537497,13.3922661 41.7503022,11.154394 C42.5020873,9.66830699 43.0790387,8.09480314 43.8657907,6.62619955 C44.6175758,5.03521232 45.3343943,3.44422509 46.0861794,1.85323787 C46.3659135,1.29376983 46.5407472,0.559468036 47.1876321,0.332184146 L47.1876321,0.332184146 Z M48.0268342,5.15759595 C47.6072332,5.78699749 47.2925324,6.46884916 47.0127984,7.15070083 C46.6806142,8.02486964 46.0512127,8.77665481 45.8938623,9.72075712 C45.788962,9.82565738 45.6840618,9.94804101 45.5791615,10.0704246 C45.1420771,11.1893607 44.5126756,12.2208799 44.1455247,13.3747827 C43.4986398,14.4063019 43.183939,15.6126549 42.5195707,16.6441741 C42.0650029,17.3435091 41.8202357,18.1477444 41.418118,18.8820462 C41.0334837,19.5464145 40.8936167,20.3331664 40.5614326,21.0150181 C40.1942817,21.941637 39.5299134,22.7283889 39.3201129,23.707458 C39.1277957,24.3543429 38.7081947,24.8788442 38.4109773,25.473279 C38.0263431,26.1026805 38.0088597,26.9243992 37.4493916,27.4663839 C36.8374735,28.3055859 36.0157548,28.9524708 35.2639696,29.6692893 C34.6170847,30.0539235 34.2674172,30.7882253 33.5680821,31.1029261 C32.8687471,31.5924606 32.0994785,31.9770949 31.4001435,32.4666294 C30.8057087,32.9037138 30.0539235,32.9911307 29.3720719,33.235898 C28.725187,33.4282151 28.2006857,33.8652995 27.5363174,33.9701998 C26.4698314,34.2149671 25.3683787,34.4597343 24.266926,34.5296678 C23.7599081,34.9492689 23.9522253,35.6311205 23.9172585,36.1905886 C23.9522253,44.0755912 23.9172585,51.9431104 23.9347419,59.8281131 C25.753013,59.8106297 27.5538008,59.7756629 29.3720719,59.8106297 C30.9455757,59.8455964 32.5190796,59.4959289 34.0925834,59.5833458 C34.9492689,59.5134123 35.840921,59.6183126 36.5402561,60.1253305 C37.6242254,60.9820159 38.6907113,61.8561847 39.8096474,62.66042 C40.718783,63.5345888 41.8552024,64.1115402 42.7118878,65.0381591 C46.3659135,65.0731259 50.0199391,65.0381591 53.6739647,65.0556425 C57.6601744,65.0206758 61.6463842,65.0906093 65.6500773,65.0206758 C66.4892794,64.3388241 67.2585479,63.5695556 68.0452998,62.8177704 C68.7621183,62.2583023 69.4614533,61.6813509 70.0908548,61.0169826 C70.5978728,60.474998 71.3321745,60.0903637 71.6468753,59.3910287 C71.7867423,58.8315606 71.7168088,58.2546092 71.7168088,57.6951412 C71.6643587,55.3348854 71.8042257,52.9746296 71.6468753,50.6318572 C71.6993254,43.7783738 71.6293919,36.9248904 71.6818421,30.0539235 C71.6643587,29.7567061 71.6818421,29.4420054 71.5419751,29.1622714 C70.702773,28.7426703 69.863571,28.2881026 69.0943024,27.7286345 C68.2026502,27.1866499 67.1361643,27.0118161 66.0871617,27.0467829 C62.9926041,27.0817496 59.9155299,27.0292995 56.8209724,27.0817496 C55.9817703,27.2216166 55.1425683,27.099233 54.338333,26.819499 C53.8662818,25.8229465 53.7788649,24.6865271 53.8487984,23.6025578 C53.8487984,20.4555501 53.8487984,17.3085424 53.8313151,14.1615347 C53.8487984,12.8327981 54.4432332,11.6264451 54.7404506,10.3501587 C55.1076015,9.63334024 55.2824353,8.82910494 55.4397857,8.02486964 C55.4397857,6.71361643 55.4922358,5.38487984 55.317402,4.07362663 C55.4223023,3.77640924 55.4397857,3.46170847 55.457269,3.1470077 C53.3242972,3.09455757 51.2088086,3.18197445 49.0758368,3.09455757 C48.6912025,3.75892586 48.3065682,4.44077753 48.0268342,5.15759595 L48.0268342,5.15759595 Z M3.28687471,29.8616064 C3.26939133,31.749811 3.19945783,33.6380156 3.32184146,35.5262203 C3.33932484,36.0507215 3.37429159,36.5577395 3.37429159,37.0647574 C3.37429159,46.0861794 3.39177497,55.1076015 3.37429159,64.1115402 L20.7527674,64.1115402 C20.7352841,55.1076015 20.7702508,46.0861794 20.7527674,37.0647574 C20.7527674,36.5577395 20.7877342,36.0507215 20.8052176,35.5262203 C20.9276012,33.6380156 20.8576677,31.749811 20.8401843,29.8616064 C14.9832533,29.8266397 9.14380571,29.8266397 3.28687471,29.8616064 L3.28687471,29.8616064 Z" stroke="#30418F" fill="#30418F" sketch:type="MSShapeGroup"></path>
                <path d="M48.0268342,5.15759595 C48.3065682,4.44077753 48.6912025,3.75892586 49.0758368,3.09455757 C51.2088086,3.18197445 53.3242972,3.09455757 55.457269,3.1470077 C55.4397857,3.46170847 55.4223023,3.77640924 55.317402,4.07362663 C54.1285325,5.71706399 53.0795299,7.44791823 51.9431104,9.12632233 C51.4186092,9.89559088 50.8416577,10.6823428 50.7542409,11.6439285 C50.5968905,12.9376983 50.5794071,14.2314682 50.4395401,15.5427214 C50.1248393,18.0952943 50.0374224,20.6653506 49.7227217,23.2179235 C49.6353048,23.9172585 49.5478879,24.6165936 49.6353048,25.333412 C50.1248393,25.7180463 50.7542409,25.8229465 51.3486757,25.9977803 C52.3627115,26.2250642 53.3592639,26.5047982 54.338333,26.819499 C55.1425683,27.099233 55.9817703,27.2216166 56.8209724,27.0817496 C59.9155299,27.0292995 62.9926041,27.0817496 66.0871617,27.0467829 C67.1361643,27.0118161 68.2026502,27.1866499 69.0943024,27.7286345 C69.863571,28.2881026 70.702773,28.7426703 71.5419751,29.1622714 C71.6818421,29.4420054 71.6643587,29.7567061 71.6818421,30.0539235 C71.6293919,36.9248904 71.6993254,43.7783738 71.6468753,50.6318572 C69.7936375,52.3452281 67.9054328,54.0236322 66.1570952,55.8419033 C65.4752436,56.4713049 64.9157755,57.3105069 64.0416067,57.6951412 C62.940154,57.9748752 61.7862512,57.7825581 60.6673151,57.8000414 C58.7965939,57.7126246 56.943356,57.9923586 55.0726348,57.9923586 C53.0795299,57.8874583 51.1213918,58.2196425 49.1282869,58.1846757 C47.3799493,58.2196425 45.6316117,57.9748752 43.8657907,57.9923586 C43.2189058,58.009842 42.5370541,57.8874583 41.9950694,57.4853407 C40.6138827,56.523755 39.232696,55.5796527 37.8689927,54.6005836 C37.2395911,54.1285325 36.4528392,53.9187319 35.6660873,53.9362153 C31.889678,54.0061488 28.1307522,53.9362153 24.3543429,53.9711821 C24.3718263,48.621269 24.3543429,43.2888393 24.3543429,37.9389262 C24.3718263,36.8025067 24.3893097,35.6660873 24.266926,34.5296678 C25.3683787,34.4597343 26.4698314,34.2149671 27.5363174,33.9701998 C28.2006857,33.8652995 28.725187,33.4282151 29.3720719,33.235898 C30.0539235,32.9911307 30.8057087,32.9037138 31.4001435,32.4666294 C32.0994785,31.9770949 32.8687471,31.5924606 33.5680821,31.1029261 C34.2674172,30.7882253 34.6170847,30.0539235 35.2639696,29.6692893 C36.0157548,28.9524708 36.8374735,28.3055859 37.4493916,27.4663839 C38.0088597,26.9243992 38.0263431,26.1026805 38.4109773,25.473279 C38.7081947,24.8788442 39.1277957,24.3543429 39.3201129,23.707458 C39.5299134,22.7283889 40.1942817,21.941637 40.5614326,21.0150181 C40.8936167,20.3331664 41.0334837,19.5464145 41.418118,18.8820462 C41.8202357,18.1477444 42.0650029,17.3435091 42.5195707,16.6441741 C43.183939,15.6126549 43.4986398,14.4063019 44.1455247,13.3747827 C44.5126756,12.2208799 45.1420771,11.1893607 45.5791615,10.0704246 C45.6840618,9.94804101 45.788962,9.82565738 45.8938623,9.72075712 C46.0512127,8.77665481 46.6806142,8.02486964 47.0127984,7.15070083 C47.2925324,6.46884916 47.6072332,5.78699749 48.0268342,5.15759595 L48.0268342,5.15759595 Z" stroke="#FFFFFF" fill="#FFFFFF" sketch:type="MSShapeGroup"></path>
                <path d="M51.9431104,9.12632233 C53.0795299,7.44791823 54.1285325,5.71706399 55.317402,4.07362663 C55.4922358,5.38487984 55.4397857,6.71361643 55.4397857,8.02486964 C55.2824353,8.82910494 55.1076015,9.63334024 54.7404506,10.3501587 C54.4432332,11.6264451 53.8487984,12.8327981 53.8313151,14.1615347 C53.8487984,17.3085424 53.8487984,20.4555501 53.8487984,23.6025578 C53.7788649,24.6865271 53.8662818,25.8229465 54.338333,26.819499 C53.3592639,26.5047982 52.3627115,26.2250642 51.3486757,25.9977803 C50.7542409,25.8229465 50.1248393,25.7180463 49.6353048,25.333412 C49.5478879,24.6165936 49.6353048,23.9172585 49.7227217,23.2179235 C50.0374224,20.6653506 50.1248393,18.0952943 50.4395401,15.5427214 C50.5794071,14.2314682 50.5968905,12.9376983 50.7542409,11.6439285 C50.8416577,10.6823428 51.4186092,9.89559088 51.9431104,9.12632233 L51.9431104,9.12632233 Z" stroke="#E8E9E9" fill="#E8E9E9" sketch:type="MSShapeGroup"></path>
                <path d="M3.28687471,29.8616064 C9.14380571,29.8266397 14.9832533,29.8266397 20.8401843,29.8616064 C20.8576677,31.749811 20.9276012,33.6380156 20.8052176,35.5262203 C14.9832533,35.561187 9.14380571,35.561187 3.32184146,35.5262203 C3.19945783,33.6380156 3.26939133,31.749811 3.28687471,29.8616064 L3.28687471,29.8616064 Z" stroke="#7E8FBE" fill="#7E8FBE" sketch:type="MSShapeGroup"></path>
                <path d="M23.9172585,36.1905886 C23.9522253,35.6311205 23.7599081,34.9492689 24.266926,34.5296678 C24.3893097,35.6660873 24.3718263,36.8025067 24.3543429,37.9389262 C24.3543429,43.2888393 24.3718263,48.621269 24.3543429,53.9711821 C28.1307522,53.9362153 31.889678,54.0061488 35.6660873,53.9362153 C36.4528392,53.9187319 37.2395911,54.1285325 37.8689927,54.6005836 C39.232696,55.5796527 40.6138827,56.523755 41.9950694,57.4853407 C42.5370541,57.8874583 43.2189058,58.009842 43.8657907,57.9923586 C45.6316117,57.9748752 47.3799493,58.2196425 49.1282869,58.1846757 C51.1213918,58.2196425 53.0795299,57.8874583 55.0726348,57.9923586 C56.943356,57.9923586 58.7965939,57.7126246 60.6673151,57.8000414 C61.7862512,57.7825581 62.940154,57.9748752 64.0416067,57.6951412 C64.9157755,57.3105069 65.4752436,56.4713049 66.1570952,55.8419033 C67.9054328,54.0236322 69.7936375,52.3452281 71.6468753,50.6318572 C71.8042257,52.9746296 71.6643587,55.3348854 71.7168088,57.6951412 C71.7168088,58.2546092 71.7867423,58.8315606 71.6468753,59.3910287 C71.3321745,60.0903637 70.5978728,60.474998 70.0908548,61.0169826 C69.4614533,61.6813509 68.7621183,62.2583023 68.0452998,62.8177704 C67.2585479,63.5695556 66.4892794,64.3388241 65.6500773,65.0206758 C61.6463842,65.0906093 57.6601744,65.0206758 53.6739647,65.0556425 C50.0199391,65.0381591 46.3659135,65.0731259 42.7118878,65.0381591 C41.8552024,64.1115402 40.718783,63.5345888 39.8096474,62.66042 C38.6907113,61.8561847 37.6242254,60.9820159 36.5402561,60.1253305 C35.840921,59.6183126 34.9492689,59.5134123 34.0925834,59.5833458 C32.5190796,59.4959289 30.9455757,59.8455964 29.3720719,59.8106297 C27.5538008,59.7756629 25.753013,59.8106297 23.9347419,59.8281131 C23.9172585,51.9431104 23.9522253,44.0755912 23.9172585,36.1905886 L23.9172585,36.1905886 Z" stroke="#E8E9E9" fill="#E8E9E9" sketch:type="MSShapeGroup"></path>
                <path d="M3.32184146,35.5262203 C9.14380571,35.561187 14.9832533,35.561187 20.8052176,35.5262203 C20.7877342,36.0507215 20.7527674,36.5577395 20.7527674,37.0647574 C20.7702508,46.0861794 20.7352841,55.1076015 20.7527674,64.1115402 L3.37429159,64.1115402 C3.39177497,55.1076015 3.37429159,46.0861794 3.37429159,37.0647574 C3.37429159,36.5577395 3.33932484,36.0507215 3.32184146,35.5262203 L3.32184146,35.5262203 Z" stroke="#6276AE" fill="#6276AE" sketch:type="MSShapeGroup"></path>
            </g>
        </g>
    </g>
</svg>