<?xml version="1.0" encoding="UTF-8"?>
<svg width="200px" height="200px" viewBox="0 0 200 200" version="1.1" xmlns="http://www.w3.org/2000/svg" xmlns:xlink="http://www.w3.org/1999/xlink">
    <!-- Generator: Sketch 48.1 (47250) - http://www.bohemiancoding.com/sketch -->
    <title>facebook</title>
    <desc>Created with Sketch.</desc>
    <defs></defs>
    <g id="Page-1" stroke="none" stroke-width="1" fill="none" fill-rule="evenodd">
        <g id="facebook">
            <rect id="Rectangle" fill="#4C67A2" x="0" y="0" width="200" height="200" rx="100"></rect>
            <path d="M122.996619,51.0208067 L110.028859,51 C95.4600252,51 86.0450048,60.6594988 86.0450048,75.6101349 L86.0450048,86.957055 L73.0065021,86.957055 C71.8798206,86.957055 70.967448,87.870468 70.967448,88.9971495 L70.967448,105.437544 C70.967448,106.564225 71.880861,107.476598 73.0065021,107.476598 L86.0450048,107.476598 L86.0450048,148.960946 C86.0450048,150.087627 86.9573775,151 88.084059,151 L105.095596,151 C106.222278,151 107.13465,150.086587 107.13465,148.960946 L107.13465,107.476598 L122.379701,107.476598 C123.506382,107.476598 124.418755,106.564225 124.418755,105.437544 L124.424997,88.9971495 C124.424997,88.4561759 124.209648,87.9380897 123.827846,87.5552469 C123.446043,87.1724041 122.925876,86.957055 122.384903,86.957055 L107.13465,86.957055 L107.13465,77.3381293 C107.13465,72.7148861 108.236364,70.3678932 114.258856,70.3678932 L122.994538,70.3647722 C124.120179,70.3647722 125.032552,69.4513592 125.032552,68.3257181 L125.032552,53.0598608 C125.032552,51.93526 124.12122,51.0228873 122.996619,51.0208067 L122.996619,51.0208067 Z" id="icon-mask" fill="#FFFFFF"></path>
        </g>
    </g>
</svg>