<?xml version="1.0" encoding="UTF-8"?>
<svg xmlns="http://www.w3.org/2000/svg" width="100" height="100" viewBox="0 0 100 100" fill="none">
  <rect width="100" height="100" rx="22" fill="#1877F2"></rect>
  <path fill-rule="evenodd" clip-rule="evenodd" d="M60.2743 27.7871L54.9442 27.7778C48.956 27.7778 45.0862 32.0709 45.0862 38.7157V43.7587H39.727C39.2639 43.7587 38.8889 44.1647 38.8889 44.6655V51.9723C38.8889 52.473 39.2644 52.8785 39.727 52.8785H45.0862V71.316C45.0862 71.8168 45.4612 72.2223 45.9243 72.2223H52.9165C53.3796 72.2223 53.7546 71.8163 53.7546 71.316V52.8785H60.0207C60.4838 52.8785 60.8588 52.473 60.8588 51.9723L60.8614 44.6655C60.8614 44.425 60.7729 44.1948 60.616 44.0246C60.459 43.8545 60.2452 43.7587 60.0229 43.7587H53.7546V39.4837C53.7546 37.4289 54.2074 36.3858 56.6829 36.3858L60.2735 36.3844C60.7361 36.3844 61.1111 35.9784 61.1111 35.4782V28.6933C61.1111 28.1935 60.7366 27.788 60.2743 27.7871Z" fill="white"></path>
</svg>
